<?xml version="1.0" encoding="UTF-8"?>
<svg id="_레이어_1" data-name=" 레이어 1" xmlns="http://www.w3.org/2000/svg" version="1.1" viewBox="0 0 150 150">
  <defs>
    <style>
      .cls-1 {
        fill: #414042;
      }

      .cls-1, .cls-2 {
        stroke-width: 0px;
      }

      .cls-2 {
        fill: #4c4e50;
      }
    </style>
  </defs>
  <path class="cls-2" d="M91.8,103.2c-.2,0-.5-.1-.5-.4l-11.6-36.1c0-.2.1-.5.4-.5.3,0,.6.1.6.3l11.6,36.1c0,.2-.1.5-.4.5,0,0,0,0-.1,0Z"/>
  <path class="cls-2" d="M91.8,103.2s0,0,0,0c-.3,0-.5-.2-.5-.5l7.1-51.1c0-.2.3-.4.6-.4.3,0,.5.2.5.5l-7.1,51.1c0,.2-.3.4-.5.4Z"/>
  <path class="cls-2" d="M91.8,103.2s0,0-.1,0c-.3,0-.5-.3-.4-.6l9.6-22.7c0-.2.4-.4.7-.3.3,0,.5.3.4.6l-9.6,22.7c0,.2-.3.3-.5.3Z"/>
  <path class="cls-1" d="M95.3,42c0-4.5-2.1-8.4-5.5-11.1-2.6-2.1-6-3.3-9.7-3.3s-7.1,1.2-9.7,3.3c-3.4,2.6-5.5,6.6-5.5,11.1,0,7.6,6.1,21,13.9,22.3-.2.3-.4.6-.6.8l-.6.8c-.2.3,0,.6.4.6h3.9c.5,0,.7-.3.4-.6l-.6-.8c-.2-.2-.4-.6-.6-.8,7.8-1.3,13.9-14.8,13.9-22.3Z"/>
  <path class="cls-1" d="M98.8,51.9c-8.9,0-15.7-15.3-15.7-22.9s2.1-8.6,5.7-11.5c2.8-2.2,6.4-3.4,10-3.4s7.2,1.2,10,3.4h0c3.6,2.8,5.7,7,5.7,11.5,0,7.7-6.8,22.9-15.7,22.9ZM98.8,15c-3.4,0-6.8,1.1-9.4,3.2-3.4,2.7-5.3,6.6-5.3,10.7s1.7,9.5,4.4,13.9c1.8,3,5.5,8,10.3,8s8.5-5,10.3-8c2.7-4.5,4.4-9.9,4.4-13.9s-1.9-8-5.3-10.7h0c-2.6-2.1-6-3.2-9.4-3.2Z"/>
  <path class="cls-1" d="M116.5,56.4c0-4.5-2.1-8.4-5.5-11.1-2.6-2.1-6-3.3-9.7-3.3s-7.1,1.2-9.7,3.3c-3.4,2.6-5.5,6.6-5.5,11.1,0,7.6,6.1,21,13.9,22.3-.2.3-.4.6-.6.8l-.6.8c-.2.3,0,.6.4.6h3.9c.5,0,.7-.3.4-.6l-.6-.8c-.2-.2-.4-.6-.6-.8,7.8-1.3,13.9-14.8,13.9-22.3Z"/>
  <path class="cls-1" d="M97.7,109.3c-1,0-1.9.1-2.9.3l-.6-3.8c0-.1,0-.2,0-.3-.1-.3-.4-.5-.7-.6,0,0,0-.1,0-.2v-6h9.9c.2,0,1,.2,1,.9,0,1.2-.4,1.7-1.7,1.7s-.9.4-.9.9.4.9.9.9c2.3,0,3.5-1.2,3.5-3.5s-1.8-2.7-2.7-2.8c0,0,0,0,0,0h-10.8c-.5,0-.9.4-.9.9v6.9c0,0,0,.1,0,.2h-21.1v-6.2c0-.6-.5-1.1-1.1-1.1h-7.6v-2.7s0,0,0,0c.6,0,2.3.5,3.4.9,1,.4,2.1.7,3,.9,1.6.4,3,.7,4.1,1-.6,0-1,.5-1,1.1s.5,1.1,1.1,1.1c3.1,0,4.6-.2,4.7-1.5.1-1.1-1.1-1.7-3.4-2.5-1.9-.6-4.2-1.1-5.1-1.3-.8-.2-1.8-.5-2.8-.9-2.3-.8-4.2-1.5-5.4-.6-.4.3-.8.8-.8,1.8v3.7c0,.6.5,1.1,1.1,1.1h7.6v5.7l-8.4,7.7c-2.8-2.4-6.5-3.9-10.4-3.9-8.9,0-16.1,7.2-16.1,16.1s7.2,16.1,16.1,16.1,15.4-6.5,16-14.8h3.4c.2,0,1.4-.1,1.5-.6l22.2-18.5.4,2.5c-6.6,2-11.4,8.1-11.4,15.4s7.2,16.1,16.1,16.1,16.1-7.2,16.1-16.1-7.2-16.1-16.1-16.1ZM68.4,124.7h-2.8c-.2-4-1.7-7.6-4.3-10.3l7.1-6.5v16.7ZM59.4,116.2c2.1,2.3,3.4,5.2,3.6,8.5h-12.9l9.3-8.5ZM49.5,138.8c-7.4,0-13.5-6-13.5-13.5s6-13.5,13.5-13.5,6.2,1.1,8.5,3l-11,10c-.3.3-.4.7-.2,1,.1.4.5.6.9.6h15.2c-.6,6.9-6.4,12.2-13.4,12.2ZM70.5,123.6v-16.9h20.2l-20.2,16.9ZM97.7,138.8c-7.4,0-13.5-6-13.5-13.5s3.9-11,9.2-12.8l2.2,13.1c0,.5.5.8.9.8s.1,0,.2,0c.5,0,.8-.6.8-1.1l-2.2-13.2c.8-.1,1.6-.2,2.4-.2,7.4,0,13.5,6,13.5,13.5s-6,13.5-13.5,13.5Z"/>
</svg>