<?xml version="1.0" encoding="UTF-8"?>
<svg id="_레이어_1" data-name="레이어 1" xmlns="http://www.w3.org/2000/svg" version="1.1" viewBox="0 0 150 150">
  <defs>
    <style>
      .cls-1 {
        fill: #414042;
      }

      .cls-1, .cls-2 {
        stroke-width: 0px;
      }

      .cls-2 {
        fill: #231f20;
      }
    </style>
  </defs>
  <g>
    <path class="cls-2" d="M69.6,92c0,0-.1,0-.2,0-.3,0-.4-.4-.4-.7.9-3-.8-6.2-3.8-7.1-1.5-.4-3-.3-4.3.4-1.3.7-2.3,1.9-2.8,3.4,0,.3-.4.4-.7.4-.3,0-.4-.4-.4-.7,1.1-3.6,4.9-5.6,8.5-4.5,3.6,1.1,5.6,4.9,4.5,8.5,0,.2-.3.4-.5.4Z"/>
    <path class="cls-2" d="M54.5,125.8c-.7,0-1.3,0-2-.3-3.6-1.1-5.6-4.9-4.5-8.5,0-.3.4-.4.7-.4.3,0,.4.4.4.7-.9,3,.8,6.2,3.8,7.1,3,.9,6.2-.8,7.1-3.8,0-.3.4-.4.7-.4.3,0,.4.4.4.7-.9,2.9-3.6,4.8-6.5,4.8Z"/>
    <path class="cls-2" d="M73.4,115.6c-.7,0-1.3-.1-2-.3-.3,0-.4-.4-.4-.7,0-.3.4-.4.7-.4,1.5.4,3,.3,4.3-.4,1.3-.7,2.3-1.9,2.8-3.4.4-1.5.3-3-.4-4.3-.7-1.3-1.9-2.3-3.4-2.8-.3,0-.4-.4-.4-.7,0-.3.4-.4.7-.4,3.6,1.1,5.6,4.9,4.5,8.5-.5,1.7-1.7,3.1-3.3,4-1,.5-2.1.8-3.1.8Z"/>
    <path class="cls-2" d="M42.6,105.9c0,0-.1,0-.2,0-3.6-1.1-5.6-4.9-4.5-8.5,1.1-3.6,4.9-5.6,8.5-4.5.3,0,.4.4.4.7,0,.3-.4.4-.7.4-3-.9-6.2.8-7.1,3.8-.9,3,.8,6.2,3.8,7.1.3,0,.4.4.4.7,0,.2-.3.4-.5.4Z"/>
    <path class="cls-2" d="M66,124.7c-.7,0-1.3-.1-2-.3-1.7-.5-3.1-1.7-4-3.3-.1-.3,0-.6.2-.7.3-.1.6,0,.7.2.7,1.3,1.9,2.3,3.4,2.8,1.5.4,3,.3,4.3-.4,1.3-.7,2.3-1.9,2.8-3.4.4-1.5.3-3-.4-4.3-.1-.3,0-.6.2-.7.3-.1.6,0,.7.2,1.7,3.3.5,7.4-2.8,9.1-1,.5-2.1.8-3.1.8Z"/>
    <path class="cls-2" d="M46.5,93.8c-.2,0-.4-.1-.5-.3-.8-1.6-1-3.4-.5-5.2.5-1.7,1.7-3.1,3.3-4,1.6-.8,3.4-1,5.2-.5,1.7.5,3.1,1.7,4,3.3.1.3,0,.6-.2.7-.3.1-.6,0-.7-.2-.7-1.3-1.9-2.3-3.4-2.8-1.5-.4-3-.3-4.3.4-1.3.7-2.3,1.9-2.8,3.4-.4,1.5-.3,3,.4,4.3.1.3,0,.6-.2.7,0,0-.2,0-.2,0Z"/>
    <path class="cls-2" d="M75.3,103.2c-.2,0-.4-.1-.5-.3-.1-.3,0-.6.2-.7,2.8-1.5,3.8-4.9,2.4-7.7-.7-1.3-1.9-2.3-3.4-2.8-1.5-.5-3-.3-4.3.4-.3.1-.6,0-.7-.2-.1-.3,0-.6.2-.7,3.3-1.7,7.4-.5,9.1,2.8,1.7,3.3.5,7.4-2.8,9.1,0,0-.2,0-.2,0Z"/>
    <path class="cls-2" d="M45.5,118.1c-2.4,0-4.8-1.3-6-3.6-.8-1.6-1-3.4-.5-5.2.5-1.7,1.7-3.1,3.3-4,.3-.1.6,0,.7.2.1.3,0,.6-.2.7-1.3.7-2.3,1.9-2.8,3.4-.4,1.5-.3,3,.4,4.3,1.5,2.8,4.9,3.8,7.7,2.4.3-.1.6,0,.7.2.1.3,0,.6-.2.7-1,.5-2.1.8-3.1.8Z"/>
    <path class="cls-1" d="M58.6,114.5c-1,0-2-.2-3-.5-2.6-.8-4.6-2.5-5.9-4.9s-1.5-5.1-.7-7.6c1.6-5.3,7.3-8.2,12.5-6.6,2.6.8,4.6,2.5,5.9,4.9s1.5,5.1.7,7.6c-.8,2.6-2.5,4.6-4.9,5.9-1.5.8-3.1,1.2-4.7,1.2ZM58.6,95.5c-3.8,0-7.4,2.5-8.5,6.3-.7,2.3-.5,4.7.6,6.8,1.1,2.1,3,3.7,5.3,4.4,2.3.7,4.7.5,6.8-.6,2.1-1.1,3.7-3,4.4-5.3.7-2.3.5-4.7-.6-6.8-1.1-2.1-3-3.7-5.3-4.4-.9-.3-1.8-.4-2.6-.4Z"/>
  </g>
  <g>
    <path class="cls-2" d="M98,44.2c-1.2-.4-2.3-.5-3.5-.5-5.1,0-9.8,3.3-11.3,8.3-.9,3-.6,6.2.8,9,1.5,2.8,4,4.9,7,5.8,3,.9,6.2.6,9-.8,2.8-1.5,4.9-4,5.8-7,.9-3,.6-6.2-.8-9-1.5-2.8-4-4.9-7-5.8Z"/>
    <path class="cls-2" d="M93.4,33.7c-.3.1-.6,0-.8,0,0,.2.2.4.5.5.4.1.8,0,.9-.5.6-1.9,1.9-3.5,3.7-4.4,1.8-.9,3.8-1.1,5.7-.5,4,1.2,6.2,5.5,5,9.4,0,0,0,.1,0,.2,0-.1.2-.3.3-.3.4-.2.9-.4,1.3-.6.8-4.4-1.8-8.8-6.2-10.1-4.2-1.3-8.7.7-10.7,4.6.2.3.4.6.5.9.2.3,0,.8-.3,1Z"/>
    <path class="cls-2" d="M96.4,76.8c0,0-.1.2-.1.3-1.2,4-5.5,6.2-9.4,5-4-1.2-6.2-5.5-5-9.4,0-.2,0-.5-.2-.7,0,.3-.1.5-.4.7-.3.2-.7.3-1,.5-.9,4.5,1.7,9,6.1,10.3.9.3,1.8.4,2.6.4,3.4,0,6.6-2,8.1-5.1-.3-.4-.5-.8-.8-1.2-.1-.2,0-.5,0-.7Z"/>
    <path class="cls-2" d="M117.9,53.2c-.3.2-.6.4-.9.5-.1,0-.2,0-.3,0-.3,0-.5-.1-.6-.4,0-.2-.1-.4,0-.5,0,0-.1.2-.2.3-.1.4,0,.8.5.9,1.9.6,3.5,1.9,4.4,3.7.9,1.8,1.1,3.8.5,5.7-.6,1.9-1.9,3.5-3.7,4.4-1.8.9-3.8,1.1-5.7.5-.4-.1-.8,0-.9.5,0,.1,0,.2,0,.3,0-.2.2-.4.4-.5.3-.2.8,0,1,.3.2.3.3.7.4,1,.5,0,.9.1,1.4.1,1.4,0,2.9-.3,4.2-1,2.1-1.1,3.7-3,4.4-5.3,1.3-4.3-.8-8.9-4.7-10.7Z"/>
    <path class="cls-2" d="M73.9,57s0,0,0,0c.1-.4,0-.8-.5-.9-4-1.2-6.2-5.5-5-9.4,1.2-4,5.5-6.2,9.4-5,.3,0,.6,0,.8-.3,0,0-.2,0-.3,0-.3,0-.5-.1-.6-.4-.2-.3-.3-.7-.4-1-4.4-.8-8.8,1.8-10.2,6.2-1.4,4.4.9,9.2,5.1,10.9.2-.1.5-.3.7-.4.3-.2.8,0,1,.3Z"/>
    <path class="cls-2" d="M110.9,69.3c0,.2,0,.3,0,.5.9,1.8,1.1,3.8.5,5.7-.6,1.9-1.9,3.5-3.7,4.4-1.8.9-3.8,1.1-5.7.5-1.9-.6-3.5-1.9-4.4-3.7-.2-.3-.6-.5-1-.3-.1,0-.2.1-.2.2.2-.2.5-.3.7-.2.4.1.6.5.5.9-.1.4-.3.8-.5,1.2,1.1,1.5,2.7,2.6,4.5,3.2.9.3,1.8.4,2.7.4,1.4,0,2.9-.3,4.2-1,4-2.1,5.8-6.9,4.2-11.1-.4,0-.9-.2-1.3-.3-.3,0-.4-.3-.5-.5Z"/>
    <path class="cls-2" d="M97.2,76.6c-.3,0-.6,0-.7.2-.1.2-.2.5,0,.7.2.4.5.8.8,1.2.2-.4.4-.8.5-1.2.1-.4,0-.8-.5-.9Z"/>
    <path class="cls-2" d="M111.3,68.9c-.2,0-.3.3-.4.5,0,.2.2.5.5.5.4.1.8.2,1.3.3-.1-.3-.3-.7-.4-1-.2-.3-.6-.5-1-.3Z"/>
    <path class="cls-2" d="M78.9,41.2c0,0,0,.1,0,.2,0,0,0,0,0,0,.3-.2.5-.6.3-1-.9-1.8-1.1-3.8-.5-5.7.6-1.9,1.9-3.5,3.7-4.4,1.8-.9,3.8-1.1,5.7-.5,1.9.6,3.5,1.9,4.4,3.7,0,0,.1.2.2.2,0-.1,0-.3,0-.4.1-.5.3-.9.5-1.3-1.1-1.7-2.8-2.9-4.7-3.5-2.3-.7-4.7-.5-6.8.6-2.1,1.1-3.7,3-4.4,5.3-.6,1.9-.5,4,.2,5.8.3,0,.7.1,1,.2.4.1.6.5.5.9Z"/>
    <path class="cls-2" d="M92.6,33.6c.2.2.5.2.8,0,.3-.2.5-.6.3-1-.2-.3-.3-.6-.5-.9-.2.4-.4.9-.5,1.3,0,.1,0,.3,0,.4Z"/>
    <path class="cls-2" d="M78.5,41.4c.1,0,.2,0,.3,0,0,0,0-.1,0-.2.1-.4,0-.8-.5-.9-.3-.1-.7-.2-1-.2.1.3.3.7.4,1,.1.2.4.4.6.4Z"/>
    <path class="cls-2" d="M109,39c0,0-.1,0-.2,0-.3,0-.5-.4-.5-.7,0,.2-.1.4,0,.6.2.3.6.5,1,.3,1.8-.9,3.8-1.1,5.7-.5,1.9.6,3.5,1.9,4.4,3.7,1.9,3.7.5,8.2-3.2,10.2-.2,0-.3.2-.3.4.2-.2.4-.3.7-.2.4.1.8.3,1.2.5,3.7-2.5,5-7.5,2.9-11.6-2.1-3.9-6.7-5.7-10.8-4.3,0,.4-.1.7-.3,1.1,0,.3-.4.5-.7.5Z"/>
    <path class="cls-2" d="M108.3,38.3c0,.3.2.6.5.7,0,0,.1,0,.2,0,.3,0,.6-.2.7-.5.1-.4.2-.7.3-1.1-.5.2-.9.3-1.3.6-.1,0-.2.2-.3.3Z"/>
    <path class="cls-2" d="M116,52.9c0,.2,0,.4,0,.5.1.2.4.4.6.4s.2,0,.3,0c.3-.2.6-.4.9-.5-.4-.2-.8-.3-1.2-.5-.3,0-.5,0-.7.2Z"/>
    <path class="cls-2" d="M81.4,71.7c.1,0,.2.1.3.2,0-.1,0-.2,0-.3-.2-.3-.6-.5-1-.3-3.7,1.9-8.2.5-10.2-3.2-.9-1.8-1.1-3.8-.5-5.7.6-1.9,1.9-3.5,3.7-4.4.3-.2.5-.6.3-1,0,0,0,0,0,0-.1.3-.4.4-.6.4s-.1,0-.2,0c-.3,0-.5-.2-.8-.3-1.8,1.1-3.1,2.8-3.7,4.9-.7,2.3-.5,4.7.6,6.8,1.6,3,4.7,4.8,7.9,4.8s2.1-.2,3.1-.6c0-.3.1-.6.2-.9.1-.4.5-.6.9-.5Z"/>
    <path class="cls-2" d="M81.7,71.9c0,0-.2-.2-.3-.2-.4-.1-.8,0-.9.5,0,.3-.2.6-.2.9.4-.1.7-.3,1-.5.2-.1.4-.4.4-.7Z"/>
    <path class="cls-2" d="M73.3,57.4c.3,0,.5-.2.6-.4-.2-.3-.6-.5-1-.3-.2.1-.5.3-.7.4.3.1.5.2.8.3,0,0,.1,0,.2,0Z"/>
    <path class="cls-2" d="M98.4,42.9c-7-2.2-14.4,1.8-16.6,8.7-1,3.4-.7,7,.9,10.1s4.4,5.4,7.8,6.5c1.3.4,2.6.6,3.9.6,2.1,0,4.2-.5,6.2-1.5,3.1-1.7,5.4-4.4,6.5-7.8,1-3.4.7-7-.9-10.1-1.7-3.1-4.4-5.4-7.8-6.5ZM105.8,59c-.9,3-3,5.5-5.8,7-2.8,1.5-6,1.8-9,.8-3-.9-5.5-3-7-5.8-1.5-2.8-1.8-6-.8-9,1.6-5.1,6.3-8.3,11.3-8.3s2.3.2,3.5.5c3,.9,5.5,3,7,5.8,1.5,2.8,1.8,6,.8,9Z"/>
  </g>
</svg>