<?xml version="1.0" encoding="UTF-8"?>
<svg id="_레이어_1" data-name=" 레이어 1" xmlns="http://www.w3.org/2000/svg" version="1.1" viewBox="0 0 150 150">
  <defs>
    <style>
      .cls-1 {
        fill: #414042;
        stroke-width: 0px;
      }
    </style>
  </defs>
  <path class="cls-1" d="M81.4,88c-2.4.5-2.6,0-2.6,0l-3.4,4.6,3.4-4.6s.3.4,2.6,0Z"/>
  <path class="cls-1" d="M103.1,72.9l-17-12.5v-.2c-.2-3,.2-6.2,1.1-9.5,1.1-3.6,2.7-7.1,5-10.4.3-.5.7-1,1.1-1.5,5.6-7.7,17.4-18.1,27.4-22.3h.3c0-.1,14,10.2,14,10.2v.3c-1.1,10.7-7.6,25.1-13.2,32.7-.4.5-.7,1-1.1,1.5-2.5,3.1-5.4,5.8-8.5,7.8-2.9,1.9-5.8,3.2-8.7,3.9h-.2ZM87.1,59.8l16.3,12c2.7-.7,5.5-1.9,8.2-3.7,3-2,5.8-4.6,8.3-7.6.4-.5.7-.9,1.1-1.4,5.5-7.5,11.8-21.4,13-31.9l-13.1-9.6c-9.7,4.2-21.2,14.3-26.7,21.8-.4.5-.7,1-1,1.5-2.2,3.3-3.8,6.7-4.8,10.1-.9,3.1-1.3,6.1-1.1,8.9ZM117.9,44.2c-1.9,0-3.8-.6-5.4-1.8-.1,0-.2-.2-.3-.3h0c-3.6-3-4.3-8.1-1.7-11.6,2.6-3.5,7.7-4.3,11.6-1.7h.1c.1.2.2.2.4.3,3.9,2.9,4.9,8.2,2.2,11.9h0c-1.3,1.8-3.3,2.9-5.6,3.2-.3,0-.7,0-1,0ZM116.9,28.2c-2.3,0-4.4,1-5.8,2.8-2.3,3.1-1.6,7.6,1.6,10.2h0c0,.2.2.2.3.3,1.7,1.2,3.7,1.8,5.7,1.6,2-.2,3.7-1.2,4.9-2.8,2.4-3.2,1.5-8-2-10.5,0,0-.2-.1-.3-.2h-.1c-1.4-1-2.9-1.4-4.4-1.4Z"/>
  <path class="cls-1" d="M131.7,16.4c-.1-.1-.3-.2-.4-.3-2.5-1.5-6.2-.9-10.4.9l6.3,4.7,7.2,5.3c.5-4.8-.2-8.7-2.7-10.5Z"/>
  <path class="cls-1" d="M103.2,72.4l-3.7-2.7-5.1-3.7-4.2-3.1-3.7-2.7h-.2c-.3.7-.6,1.5-.9,2.3-1,3.1-1.5,5.9-1.4,8.3l4.4,3.2,5.3,3.9c2.3-.6,4.9-2,7.5-3.8.7-.5,1.4-1,2.1-1.6h-.2Z"/>
  <g>
    <path class="cls-1" d="M78,84.4c-.1-2.8,1.7-4.6,2.5-5.2.1-.1,0-.3-.1-.3-.8,0-2.1.4-2.8.7-.2,0-.3,0-.3-.2,1.4-4,6.2-3.8,6.8-3.7,0,0,0,0,.1,0l-.7-.5s0,0-.1,0c-.8,0-7.2,0-9.3,5.6,0,.2.1.4.3.3.9-.4,2.8-1.1,3.8-1.2.2,0,.3.3.2.5-1,.9-3.6,3.4-3.7,7.3,0,4.9.8,5,.8,5l3.4-4.6s-.6-.2-.8-3.7Z"/>
    <path class="cls-1" d="M89.9,79.8c0,0,0,0,0-.1l-.7-.5s0,0,0,0c.2.5,1.9,5.1-1.6,7.6-.1,0-.3,0-.3-.2,0-.7,0-2.2-.2-2.9,0-.2-.3-.2-.4,0-.3.9-1.5,3.2-4.2,3.9-.2,0-.4.1-.6.1-.2,0-.3,0-.5.1-2.4.5-2.6,0-2.6,0l-3.4,4.6s.4.7,5-.8c3.7-1.2,5.4-4.4,5.9-5.7,0-.2.4-.2.5,0,.3,1,.1,3,0,4,0,.2.2.4.4.2,4.7-3.7,2.9-9.9,2.6-10.6Z"/>
  </g>
  <path class="cls-1" d="M111.8,68.5c-2.8,1.9-5.8,3.2-8.6,3.8h.2c-.7.7-1.4,1.2-2.1,1.7l1.1.8,12,8.8c1.3,1,3.1.1,3.3-1.5l1.7-14.8.7-6.7c-2.5,3.2-5.4,5.8-8.4,7.7Z"/>
  <path class="cls-1" d="M86.6,60.1c-.2-2.9.2-6.1,1.1-9.3,1-3.4,2.7-6.9,4.9-10.3l-6.1,2.7-13.6,6c-1.5.6-1.7,2.7-.4,3.6l12,8.8,1.1.8c.3-.8.6-1.6.9-2.4h.2Z"/>
  <path class="cls-1" d="M23.7,132.9c-.1,0-.2,0-.3-.1-.2-.2-.2-.4,0-.6l44.3-44.3c.2-.2.4-.2.6,0,.2.2.2.4,0,.6l-44.3,44.3c0,0-.2.1-.3.1Z"/>
  <path class="cls-1" d="M60,112.9c-.1,0-.2,0-.3-.1-.2-.2-.2-.4,0-.6l11.6-11.6c.2-.2.4-.2.6,0,.2.2.2.4,0,.6l-11.6,11.6c0,0-.2.1-.3.1Z"/>
  <path class="cls-1" d="M50.5,133.7c0,0-.2,0-.3-.1-.2-.1-.2-.4,0-.6l28.6-31.7c.1-.2.4-.2.6,0s.2.4,0,.6l-28.6,31.7c0,0-.2.1-.3.1Z"/>
</svg>