<?xml version="1.0" encoding="UTF-8"?>
<svg id="_레이어_1" data-name=" 레이어 1" xmlns="http://www.w3.org/2000/svg" version="1.1" viewBox="0 0 150 150">
  <defs>
    <style>
      .cls-1 {
        fill: #414042;
        stroke-width: 0px;
      }
    </style>
  </defs>
  <path class="cls-1" d="M67.7,79c0,0-.1,0-.2,0-.5,0-.9-.4-1-.9l-7-23-22.9-7.2c-.5-.1-.8-.5-.9-1s.1-1,.5-1.2l19.7-13.8-.2-24.1c0-.5.3-.9.7-1.1.4-.2.9-.2,1.3.1l19.2,14.5,22.8-7.6c.5-.2,1,0,1.3.3.3.3.5.8.3,1.3l-7.8,22.7,14.3,19.3c.3.4.3.9.1,1.3-.2.4-.7.7-1.1.7s0,0,0,0l-24-.4-14,19.6c-.2.3-.6.5-1,.5ZM39.7,46.2l21.1,6.7c.4.1.7.4.8.8l6.5,21.2,12.9-18c.2-.3.6-.5,1-.5l22.2.4-13.2-17.8c-.2-.3-.3-.8-.2-1.2l7.2-21-21,7c-.4.1-.8,0-1.2-.2l-17.7-13.3.2,22.2c0,.4-.2.8-.5,1l-18.1,12.7Z"/>
  <path class="cls-1" d="M26.5,111.8c0,0-.1,0-.2,0-.5,0-.9-.4-1-.9l-3.4-11.1-11.1-3.5c-.5-.1-.8-.5-.9-1s.1-1,.5-1.2l9.5-6.7v-11.6c-.1-.5.2-.9.6-1.1.4-.2.9-.2,1.3.1l9.3,7,11-3.7c.5-.2,1,0,1.3.3.3.3.5.8.3,1.3l-3.8,11,6.9,9.3c.3.4.3.9.1,1.3-.2.4-.7.7-1.1.7l-11.6-.2-6.7,9.5c-.2.3-.6.5-1,.5ZM14,94.6l9.3,2.9c.4.1.7.4.8.8l2.8,9.3,5.6-7.9c.2-.3.6-.5,1-.5l9.7.2-5.8-7.8c-.2-.3-.3-.8-.2-1.2l3.2-9.2-9.2,3.1c-.4.1-.8,0-1.2-.2l-7.8-5.8v9.7c0,.4-.1.8-.5,1l-8,5.6Z"/>
  <path class="cls-1" d="M110.8,138.9c0,0-.1,0-.2,0-.5,0-.9-.4-1-.9l-5.7-18.5-18.5-5.8c-.5-.1-.8-.5-.9-1,0-.5.1-1,.5-1.2l15.9-11.1-.2-19.4c0-.5.3-.9.7-1.1.4-.2.9-.2,1.3.1l15.5,11.7,18.4-6.1c.5-.2,1,0,1.3.3.3.3.5.8.3,1.3l-6.3,18.3,11.5,15.6c.3.4.3.9.1,1.3-.2.4-.7.7-1.1.7l-19.4-.3-11.3,15.8c-.2.3-.6.5-1,.5ZM88.6,112l16.7,5.3c.4.1.7.4.8.8l5.1,16.7,10.2-14.2c.2-.3.6-.5,1-.5l17.5.3-10.4-14.1c-.2-.3-.3-.8-.2-1.2l5.7-16.5-16.6,5.5c-.4.1-.8,0-1.2-.2l-14-10.5.2,17.5c0,.4-.2.8-.5,1l-14.3,10Z"/>
</svg>