<?xml version="1.0" encoding="UTF-8"?>
<svg id="_레이어_1" data-name=" 레이어 1" xmlns="http://www.w3.org/2000/svg" version="1.1" viewBox="0 0 150 150">
  <defs>
    <style>
      .cls-1 {
        fill: #414042;
      }

      .cls-1, .cls-2, .cls-3, .cls-4 {
        stroke-width: 0px;
      }

      .cls-2 {
        fill: none;
      }

      .cls-3 {
        fill: #fbceaf;
      }

      .cls-4 {
        fill: #bbdce3;
      }
    </style>
  </defs>
  <path class="cls-2" d="M41,128.2c0,.8-.6,1.4-1.4,1.4s-1.4-.6-1.4-1.4.6-1.4,1.3-1.4l1.1-2.5c-.3,0-.7-.1-1-.1-2.2,0-4.1,1.8-4.1,4.1s1.8,4.1,4.1,4.1,4.1-1.8,4.1-4.1-.9-2.9-2.1-3.6l-1.1,2.5c.3.3.6.7.6,1.1Z"/>
  <path class="cls-2" d="M111.5,56.6h-3.2c-2.1,0-3.7-1.7-3.7-3.7,0,2.1-1.7,3.7-3.7,3.7h-3.2c-2.1,0-3.7-1.7-3.7-3.7,0,2.1-1.7,3.7-3.7,3.7h-3.2c-2.1,0-3.7-1.7-3.7-3.7,0,2.1-1.7,3.7-3.7,3.7h-3.2c-2.1,0-3.7-1.7-3.7-3.7,0,2.1-1.7,3.7-3.7,3.7h-3.2c-2.1,0-3.7-1.7-3.7-3.7,0,2.1-1.7,3.7-3.7,3.7h-3.2c-2.1,0-3.7-1.7-3.7-3.7,0,2.1-1.7,3.7-3.7,3.7h-3.2c-.5,0-.9,0-1.3-.2v28.4h17.8l.8-10.3h54.4v-19.6c-.4-.6-.6-1.3-.6-2,0,2.1-1.7,3.7-3.7,3.7Z"/>
  <path class="cls-1" d="M42.8,84.7v-28.4c-.4-.1-.7-.3-1-.6v29.2l.4-.2h.6Z"/>
  <path class="cls-1" d="M41,123.4c-.4-.1-.9-.2-1.4-.2-2.8,0-5.1,2.3-5.1,5.1s2.3,5.1,5.1,5.1,5.1-2.3,5.1-5.1-1.1-3.7-2.7-4.5l1.3-3.1c0,0,0-.1,0-.2h-1l-1.3,2.9ZM43.6,128.2c0,2.2-1.8,4.1-4.1,4.1s-4.1-1.8-4.1-4.1,1.8-4.1,4.1-4.1.7,0,1,.1l-1.1,2.5c-.7,0-1.3.7-1.3,1.4s.6,1.4,1.4,1.4,1.4-.6,1.4-1.4-.2-.9-.6-1.1l1.1-2.5c1.3.7,2.1,2,2.1,3.6Z"/>
  <path class="cls-1" d="M115.8,54.8v19.6h1v-18.5c-.4-.3-.7-.6-1-1Z"/>
  <polygon class="cls-3" points="81.7 120.4 78.3 120.4 81.3 120.4 81.9 120.4 81.9 120.4 81.7 120.4"/>
  <path class="cls-1" d="M119.8,86.9h0c0,.1-59.4.1-59.4.1l.2-2.3h-18.4l-.4.2-7.3,4.4v31h47.1s.3,0,.3,0c1.5-8.5,8.9-15,17.8-15s16.4,6.5,17.8,15h0s5.9,0,5.9,0v-31l-3.7-2.5Z"/>
  <polygon class="cls-1" points="61.4 74.4 60.6 84.7 60.4 87.1 119.8 87.1 119.8 86.9 117.3 74.4 116.8 74.4 115.8 74.4 61.4 74.4"/>
  <path class="cls-4" d="M29.7,31.1l2.9-1c-1,.3-2,.6-2.9,1Z"/>
  <path class="cls-1" d="M77.3,15.3l-26.3,15.8v21.7c0,2.1,1.7,3.7,3.7,3.7h3.2c2.1,0,3.7-1.7,3.7-3.7v-21.7l15.8-15.8h-.2Z"/>
  <path class="cls-1" d="M78.6,15.3h-.2l36.8,15.8v21.7c0,.7.2,1.4.6,2,.3.4.6.7,1,1,.6.4,1.4.7,2.2.7h3.2c2.1,0,3.7-1.7,3.7-3.7v-21.7l-47.3-15.8Z"/>
  <path class="cls-1" d="M77,15.3l-44.4,14.8-2.9,1v21.7c0,2.1,1.7,3.7,3.7,3.7h3.2c2.1,0,3.7-1.7,3.7-3.7v-21.7l36.8-15.8h-.2Z"/>
  <path class="cls-1" d="M77.9,15.3h-.2l-5.3,15.8v21.7c0,2.1,1.7,3.7,3.7,3.7h3.2c2.1,0,3.7-1.7,3.7-3.7v-21.7l-5.3-15.8Z"/>
  <path class="cls-1" d="M78.2,15.3h-.2l15.8,15.8v21.7c0,2.1,1.7,3.7,3.7,3.7h3.2c2.1,0,3.7-1.7,3.7-3.7v-21.7l-26.3-15.8Z"/>
  <g>
    <path class="cls-1" d="M47.3,57.1h-3.2c-.5,0-1,0-1.5-.3-.4-.2-.8-.4-1.1-.6-1-.8-1.6-2-1.6-3.3v-22l37.3-16h2l-27.6,16.6v21.4c0,2.3-1.9,4.2-4.2,4.2ZM40.9,31.4v21.4c0,1,.5,1.9,1.2,2.5.3.2.5.4.8.5.4.1.8.2,1.1.2h3.2c1.8,0,3.2-1.5,3.2-3.2v-22l20.7-12.4-30.4,13.1Z"/>
    <path class="cls-1" d="M68.7,57.1h-3.2c-2.3,0-4.2-1.9-4.2-4.2v-21.9l16.1-16.1h1.1l-5.4,16.4v21.6c0,2.3-1.9,4.2-4.2,4.2ZM62.2,31.3v21.5c0,1.8,1.5,3.2,3.2,3.2h3.2c1.8,0,3.2-1.5,3.2-3.2v-21.9s4.7-14.1,4.7-14.1l-14.4,14.4Z"/>
    <path class="cls-1" d="M90.1,57.1h-3.2c-2.3,0-4.2-1.9-4.2-4.2v-21.6l-5.4-16.4h1.1l16.1,16.1v21.9c0,2.3-1.9,4.2-4.2,4.2ZM78.9,16.9l4.7,14.2v21.7c0,1.8,1.5,3.2,3.2,3.2h3.2c1.8,0,3.2-1.5,3.2-3.2v-21.5l-14.4-14.4Z"/>
    <path class="cls-1" d="M111.5,57.1h-3.2c-2.3,0-4.2-1.9-4.2-4.2v-21.4l-27.6-16.6h2.2s37.1,16,37.1,16v22c0,2.3-1.9,4.2-4.2,4.2ZM84.3,18.4l20.7,12.4v22c0,1.8,1.5,3.2,3.2,3.2h3.2c1.8,0,3.2-1.5,3.2-3.2v-21.4l-30.4-13.1Z"/>
  </g>
  <path class="cls-1" d="M99.7,105.4c-8.9,0-16.4,6.5-17.8,15h0c-.2,1-.3,2-.3,3.1,0,10,8.1,18.1,18.1,18.1s18.1-8.1,18.1-18.1,0-2.1-.3-3.1h0c-1.5-8.5-8.9-15-17.8-15ZM116.9,123.5c0,9.4-7.7,17.1-17.1,17.1s-17.1-7.7-17.1-17.1,7.7-17.1,17.1-17.1,17.1,7.7,17.1,17.1Z"/>
  <path class="cls-1" d="M99.7,118.1c-3.1,0-5.5,2.5-5.5,5.5s2.5,5.5,5.5,5.5,5.5-2.5,5.5-5.5-2.5-5.5-5.5-5.5ZM104.3,123.6c0,2.5-2,4.6-4.6,4.6s-4.6-2-4.6-4.6,2-4.6,4.6-4.6,4.6,2,4.6,4.6Z"/>
  <circle class="cls-1" cx="99.7" cy="123.6" r="1.7"/>
</svg>