<?xml version="1.0" encoding="UTF-8"?>
<svg id="_레이어_1" data-name=" 레이어 1" xmlns="http://www.w3.org/2000/svg" version="1.1" viewBox="0 0 150 150">
  <defs>
    <style>
      .cls-1 {
        fill: #414042;
      }

      .cls-1, .cls-2 {
        stroke-width: 0px;
      }

      .cls-2 {
        fill: #231f20;
      }
    </style>
  </defs>
  <g>
    <path class="cls-1" d="M117.6,88.5c-10.1,0-18.4-10.3-18.4-22.9s8.3-22.9,18.4-22.9,18.4,10.3,18.4,22.9-8.3,22.9-18.4,22.9ZM117.6,43.6c-9.7,0-17.6,9.9-17.6,22.1s7.9,22.1,17.6,22.1,17.6-9.9,17.6-22.1-7.9-22.1-17.6-22.1Z"/>
    <path class="cls-1" d="M117.6,136.2c-.2,0-.4-.2-.4-.4v-61c0-.2.2-.4.4-.4s.4.2.4.4v61c0,.2-.2.4-.4.4Z"/>
  </g>
  <g>
    <path class="cls-1" d="M57.5,111.2c-5.3,0-9.6-4.3-9.6-9.6s4.3-9.6,9.6-9.6,9.6,4.3,9.6,9.6-4.3,9.6-9.6,9.6ZM57.5,92.8c-4.9,0-8.8,4-8.8,8.8s4,8.8,8.8,8.8,8.8-4,8.8-8.8-4-8.8-8.8-8.8Z"/>
    <path class="cls-1" d="M41.2,134.5c-.2,0-.4-.2-.4-.4v-65.9c0-.2.2-.4.4-.4s.4.2.4.4v65.9c0,.2-.2.4-.4.4Z"/>
    <path class="cls-1" d="M42.3,117.3c0,0-.2,0-.3,0-.2-.2-.2-.4,0-.6l13.2-13.2c.2-.2.4-.2.6,0,.2.2.2.4,0,.6l-13.2,13.2s-.2,0-.3,0Z"/>
    <path class="cls-2" d="M55.4,87.7H22.6c-1.4-.2-3.4-.7-4.5-2.2-1.7-2.3-.5-5.6.4-7.9.2-.4.3-.8.4-1.2.4-1.2,2.1-6.4,4.2-12.9,4.6-14.3,11-33.8,11.6-35.2.6-1.6,1.8-4.5,4.5-4.4,2.7-.1,3.8,2.8,4.5,4.4.6,1.5,7,21.1,11.6,35.4,2.1,6.4,3.7,11.4,4.1,12.7,0,.4.3.7.4,1.2.9,2.4,2.1,5.7.4,7.9-1.1,1.5-3.1,2-4.5,2.2h-.3ZM22.6,86.9h32.8c1.3-.2,3.1-.7,4-1.9,1.5-1.9.4-4.9-.5-7.2-.2-.4-.3-.8-.4-1.2-.4-1.2-2.1-6.3-4.1-12.7-4.4-13.5-11.1-34-11.6-35.4-.8-2-1.8-4-3.7-3.9h0c-2-.1-2.9,2-3.7,3.9-.6,1.4-7.2,21.7-11.6,35.2-2.1,6.5-3.8,11.6-4.2,12.9-.1.4-.3.8-.4,1.2-.9,2.3-1.9,5.2-.5,7.2,1,1.3,2.7,1.7,4,1.9h-.1Z"/>
  </g>
  <g>
    <path class="cls-2" d="M32.3,133.5h-.2l-3.9-3.9v-.3h.3l3.9,3.9v.3h-.2.1Z"/>
    <path class="cls-2" d="M31.8,133.5h-.2v-.3l3.9-3.9h.3v.3l-3.9,3.9h-.2.1Z"/>
  </g>
  <g>
    <path class="cls-2" d="M66,133.5h-.2l-6.2-6.2v-.3h.3l6.2,6.2v.3h-.2,0Z"/>
    <path class="cls-2" d="M65.2,133.5h-.2v-.3l6.2-6.2h.3v.3l-6.2,6.2h-.2,0Z"/>
  </g>
  <g>
    <path class="cls-2" d="M79.3,133.5h-.2l-3.9-3.9v-.3h.3l3.9,3.9v.3h-.2,0Z"/>
    <path class="cls-2" d="M78.8,133.5h-.2v-.3l3.9-3.9h.3v.3l-3.9,3.9h-.2,0Z"/>
  </g>
  <g>
    <path class="cls-2" d="M107.2,132.6h-.2l-3.9-3.9v-.3h.3l3.9,3.9v.3h-.2,0Z"/>
    <path class="cls-2" d="M106.7,132.6h-.2v-.3l3.9-3.9h.3v.3l-3.9,3.9h-.2,0Z"/>
  </g>
</svg>