<?xml version="1.0" encoding="UTF-8"?>
<svg id="_레이어_1" data-name=" 레이어 1" xmlns="http://www.w3.org/2000/svg" version="1.1" viewBox="0 0 150 150">
  <defs>
    <style>
      .cls-1 {
        fill: #231f20;
        stroke-width: 0px;
      }
    </style>
  </defs>
  <path class="cls-1" d="M120.2,61.7s0-2.6-1.2-2c-2.2.9-6.5,5.2-9.7,5.2-9.1-.1-24.5-4.9-33.2-2.4-2.8.8-.9-3.1-.9-3.1,4.6-10.3,1.9-22.1-6.4-28.2-.8-.6-1.7-1.2-2.6-1.7-10.7-5.6-24.4-.7-30.5,10.9-1.2,2.3-2.1,4.8-2.5,7.2-2.6,1.7-5,4.3-7.7,4.4-4.7.2-7.4-2-7.9,2.5-.5,4.5,2.9,8.5,7.6,9.1l11.3,1.3c1.9,2.8,4.4,5.2,7.5,6.8.5.3,1.1.5,1.6.8-1.7,3.6-2.7,8.5-2.7,13.8,0,11.2,7.1,16.4,13.1,17.4,3.3.6,7.8,1,12.8,1.3,12.2.6,27.2,0,33.2-3.1,7.1-3.7,8-3.4,12.5-13.1,5.8-12.6,5.7-27.3,5.7-27.3ZM49,49.3c-3,0-5.4-2.4-5.4-5.4s2.4-5.4,5.4-5.4,5.4,2.4,5.4,5.4-2.4,5.4-5.4,5.4Z"/>
  <g>
    <path class="cls-1" d="M57.5,110.1c-4.6,0-8.8-2.5-11.1-6.4-2.1-3.7-6.1-6-10.4-6s-8.2,2.3-10.4,6c-.1.2-.4.3-.6.2-.2-.1-.3-.4-.2-.6,2.3-4,6.6-6.4,11.1-6.4s8.8,2.5,11.1,6.4c2.1,3.7,6.1,6,10.4,6s8.2-2.3,10.4-6c.1-.2.4-.3.6-.2.2.1.3.4.2.6-2.3,4-6.6,6.4-11.1,6.4Z"/>
    <path class="cls-1" d="M100.4,110.1c-4.6,0-8.8-2.5-11.1-6.4-2.1-3.7-6.1-6-10.4-6s-8.2,2.3-10.4,6c-.1.2-.4.3-.6.2-.2-.1-.3-.4-.2-.6,2.3-4,6.6-6.4,11.1-6.4s8.8,2.5,11.1,6.4c2.1,3.7,6.1,6,10.4,6s8.2-2.3,10.4-6c.1-.2.4-.3.6-.2.2.1.3.4.2.6-2.3,4-6.6,6.4-11.1,6.4Z"/>
    <path class="cls-1" d="M111.1,103.9c0,0-.1,0-.2,0-.2-.1-.3-.4-.2-.6,2.3-4,6.6-6.4,11.1-6.4s8.8,2.5,11.1,6.4c.1.2,0,.5-.2.6-.2.1-.5,0-.6-.2-2.1-3.7-6.1-6-10.4-6s-8.2,2.3-10.4,6c0,.1-.2.2-.4.2Z"/>
  </g>
  <g>
    <path class="cls-1" d="M57.5,131.2c-4.6,0-8.8-2.5-11.1-6.4-2.1-3.7-6.1-6-10.4-6s-8.2,2.3-10.4,6c-.1.2-.4.3-.6.2-.2-.1-.3-.4-.2-.6,2.3-4,6.6-6.4,11.1-6.4s8.8,2.5,11.1,6.4c2.1,3.7,6.1,6,10.4,6s8.2-2.3,10.4-6c.1-.2.4-.3.6-.2.2.1.3.4.2.6-2.3,4-6.6,6.4-11.1,6.4Z"/>
    <path class="cls-1" d="M100.4,131.2c-4.6,0-8.8-2.5-11.1-6.4-2.1-3.7-6.1-6-10.4-6s-8.2,2.3-10.4,6c-.1.2-.4.3-.6.2-.2-.1-.3-.4-.2-.6,2.3-4,6.6-6.4,11.1-6.4s8.8,2.5,11.1,6.4c2.1,3.7,6.1,6,10.4,6s8.2-2.3,10.4-6c.1-.2.4-.3.6-.2.2.1.3.4.2.6-2.3,4-6.6,6.4-11.1,6.4Z"/>
    <path class="cls-1" d="M111.1,125c0,0-.1,0-.2,0-.2-.1-.3-.4-.2-.6,2.3-4,6.6-6.4,11.1-6.4s8.8,2.5,11.1,6.4c.1.2,0,.5-.2.6-.2.1-.5,0-.6-.2-2.1-3.7-6.1-6-10.4-6s-8.2,2.3-10.4,6c0,.1-.2.2-.4.2Z"/>
  </g>
</svg>