<?xml version="1.0" encoding="UTF-8"?>
<svg id="_레이어_1" data-name=" 레이어 1" xmlns="http://www.w3.org/2000/svg" version="1.1" viewBox="0 0 150 150">
  <defs>
    <style>
      .cls-1 {
        fill: #414042;
        stroke-width: 0px;
      }
    </style>
  </defs>
  <path class="cls-1" d="M140.3,122.5h-.3l-50.3-26.2c-.3-.2-.4-.5-.3-.8.2-.3.5-.4.8-.3l50.3,26.2c.3.2.4.5.3.8-.1.2-.3.3-.5.3Z"/>
  <path class="cls-1" d="M93.7,78h-.3l-22.6-11.8c-.3-.2-.4-.5-.3-.8.2-.3.5-.4.8-.3l22.6,11.8c.3.2.4.5.3.8,0,.2-.3.3-.5.3Z"/>
  <path class="cls-1" d="M128.8,82.4h-.3l-60.3-27.6c-.3,0-.4-.5-.3-.8s.5-.4.8-.3l60.3,27.6c.3,0,.4.5.3.8-.1.2-.3.4-.6.4h.1Z"/>
  <path class="cls-1" d="M55.8,54.6c0,0-.2,0-.3-.2l-7.7-12L9.2,28.7c-.2,0-.3-.3-.2-.4,0-.2.2-.3.4-.3l45.2,7.7c.2,0,.3.2.3.3l1.3,18.1c0,.2,0,.3-.3.4h0ZM13.5,29.5l34.7,12.2s0,0,.2,0l7,10.9-1.2-16.4-40.7-6.9h0Z"/>
  <path class="cls-1" d="M55.8,54.6c0,0-.2,0-.3-.2l-7.7-12L9.2,28.7c-.2,0-.3-.3-.2-.4,0-.2.2-.3.4-.3l45.2,7.7c.2,0,.3.2.3.3l1.3,18.1c0,.2,0,.3-.3.4h0ZM13.5,29.5l34.7,12.2s0,0,.2,0l7,10.9-1.2-16.4-40.7-6.9h0Z"/>
  <path class="cls-1" d="M54.5,36.4h0l-45.2-7.7c-.2,0-.3-.2-.3-.4s.2-.3.4-.3l61.8.3c.2,0,.3.1.4.3,0,.2,0,.3-.2.4l-16.6,7.4h-.3ZM13.8,28.8l40.7,6.9,14.9-6.7-55.6-.3h0Z"/>
  <path class="cls-1" d="M54.5,36.4h0l-45.2-7.7c-.2,0-.3-.2-.3-.4s.2-.3.4-.3l61.8.3c.2,0,.3.1.4.3,0,.2,0,.3-.2.4l-16.6,7.4h-.3ZM13.8,28.8l40.7,6.9,14.9-6.7-55.6-.3h0Z"/>
  <path class="cls-1" d="M55.8,54.6h0l-13.6-5.2c0,0-.2,0-.2-.3v-.3l5.9-7s.2,0,.3,0,.2,0,.3.2l7.8,12.2v.4s-.2,0-.3,0h0ZM42.7,48.9l12.2,4.6-6.9-10.9-5.3,6.2h0Z"/>
  <path class="cls-1" d="M55.8,54.6h0l-13.6-5.2c0,0-.2,0-.2-.3v-.3l5.9-7s.2,0,.3,0,.2,0,.3.2l7.8,12.2v.4s-.2,0-.3,0h0ZM42.7,48.9l12.2,4.6-6.9-10.9-5.3,6.2h0Z"/>
  <path class="cls-1" d="M29.8,64h0c-.1,0-.2,0-.3-.2L9,28.6v-.4c0-.1.3-.2.4-.1l38.7,13.7c0,0,.2,0,.2.2v.3l-18.2,21.6s-.2,0-.3,0ZM10.1,29l19.7,34,17.6-20.8L10.1,29Z"/>
  <path class="cls-1" d="M29.8,64h0c-.1,0-.2,0-.3-.2L9,28.6v-.4c0-.1.3-.2.4-.1l38.7,13.7c0,0,.2,0,.2.2v.3l-18.2,21.6s-.2,0-.3,0ZM10.1,29l19.7,34,17.6-20.8L10.1,29Z"/>
</svg>