<?xml version="1.0" encoding="UTF-8"?>
<svg id="_레이어_1" data-name=" 레이어 1" xmlns="http://www.w3.org/2000/svg" version="1.1" viewBox="0 0 150 150">
  <defs>
    <style>
      .cls-1 {
        fill: #414042;
      }

      .cls-1, .cls-2, .cls-3 {
        stroke-width: 0px;
      }

      .cls-2 {
        fill: #fff;
      }

      .cls-3 {
        fill: #231f20;
      }
    </style>
  </defs>
  <path class="cls-1" d="M75.2,120.7c-20.8,0-39.5-5.4-47.8-13.8-2.9-2.9-4.3-6-4.3-9.2s0-.6,0-1v-37.7c0-6.7,5.5-12.2,12.2-12.2h80c6.7,0,12.2,5.5,12.2,12.2v36.6c0,.7,0,1.4-.2,2.1,0,3.2-1.5,6.3-4.3,9.2-8.3,8.4-27,13.8-47.8,13.8ZM35.3,47.6c-6.3,0-11.4,5.1-11.4,11.4v37.6h0v.9c0,3,1.4,5.9,4.1,8.6,8.1,8.2,26.6,13.5,47.2,13.5s39.1-5.3,47.2-13.5c2.7-2.7,4.1-5.7,4.1-8.6s0,0,0,0c0-.7.2-1.3.2-1.9v-36.6c0-6.3-5.1-11.4-11.4-11.4H35.3Z"/>
  <g>
    <path class="cls-2" d="M123.3,64.3c2.7-2.7,4.2-5.8,4.2-8.9,0-12.5-23.3-22.6-52-22.6s-52,10.1-52,22.6,1.5,6.2,4.2,8.9c8-8,26.4-13.6,47.8-13.6s39.8,5.6,47.8,13.6Z"/>
    <path class="cls-1" d="M123.3,64.7c0,0-.2,0-.3,0-8.2-8.2-26.8-13.5-47.5-13.5s-39.3,5.3-47.5,13.5c-.2.2-.4.2-.6,0-2.9-2.9-4.4-6-4.4-9.2,0-6.2,5.5-12,15.5-16.4,9.9-4.3,23-6.6,37-6.6s27.1,2.4,37,6.6c10,4.3,15.5,10.1,15.5,16.4s-1.5,6.3-4.4,9.2c0,0-.2,0-.3,0ZM75.5,33.2c-13.8,0-26.8,2.3-36.6,6.6-9.7,4.2-15,9.7-15,15.6s1.3,5.7,3.8,8.3c8.5-8.2,27.1-13.5,47.8-13.5s39.3,5.3,47.8,13.5c2.5-2.7,3.8-5.5,3.8-8.3,0-5.9-5.3-11.4-15-15.6-9.8-4.2-22.8-6.6-36.6-6.6Z"/>
  </g>
  <path class="cls-1" d="M75.5,78.4c-20.9,0-39.8-5.4-48.1-13.8-.2-.2-.2-.4,0-.6,8.3-8.4,27.2-13.8,48.1-13.8s39.8,5.4,48.1,13.8c.2.2.2.4,0,.6-8.3,8.4-27.2,13.8-48.1,13.8ZM28.4,64.3c8.3,8,26.8,13.2,47.2,13.2s38.9-5.2,47.2-13.2c-8.3-8-26.8-13.2-47.2-13.2s-38.9,5.2-47.2,13.2Z"/>
  <g>
    <path class="cls-3" d="M55.7,71.4c-.2,0-.4-.2-.4-.4v-31.1c0-4.8-3.9-8.6-8.6-8.6s-8.6,3.9-8.6,8.6-.2.4-.4.4-.4-.2-.4-.4c0-5.2,4.3-9.5,9.5-9.5s9.5,4.3,9.5,9.5v31.1c0,.2-.2.4-.4.4h-.2Z"/>
    <path class="cls-3" d="M75.5,69.1c-.2,0-.4-.2-.4-.4v-36.1c0-4.8-3.9-8.6-8.6-8.6s-8.6,3.9-8.6,8.6-.2.4-.4.4-.4-.2-.4-.4c0-5.2,4.3-9.5,9.5-9.5s9.5,4.3,9.5,9.5v36.1c0,.2-.2.4-.4.4h-.2Z"/>
    <path class="cls-3" d="M55.7,44.9c-.2,0-.4,0-.4-.3s0-.5.3-.5l19.1-4.9c.2,0,.5,0,.5.3s0,.5-.3.5l-19.1,4.9h0Z"/>
    <path class="cls-3" d="M55.7,55.8c-.2,0-.4,0-.4-.3s0-.5.3-.5l19.1-4.9c.2,0,.5,0,.5.3s0,.5-.3.5l-19.1,4.9h0Z"/>
    <path class="cls-3" d="M55.7,65.7c-.2,0-.4,0-.4-.3s0-.5.3-.5l19.1-4.9c.2,0,.5,0,.5.3s0,.5-.3.5l-19.1,4.9h0Z"/>
  </g>
</svg>